<svg xmlns="http://www.w3.org/2000/svg" width="800" height="400" viewBox="0 0 800 400">
  <defs>
    <linearGradient id="bg" x1="0%" y1="0%" x2="0%" y2="100%">
      <stop offset="0%" style="stop-color:#f97316"/>
      <stop offset="100%" style="stop-color:#ea580c"/>
    </linearGradient>
  </defs>
  <rect width="800" height="400" fill="url(#bg)"/>
  <text x="400" y="80" text-anchor="middle" font-family="Arial, sans-serif" font-size="20" font-weight="bold" fill="white" text-transform="uppercase" letter-spacing="2">CATALOG PRODUCT PROCUREMENT</text>
  <rect x="140" y="110" width="520" height="240" rx="16" fill="white" opacity="0.95"/>
  <rect x="160" y="130" width="200" height="32" rx="6" fill="#fff7ed" stroke="#fdba74" stroke-width="1"/>
  <text x="260" y="151" text-anchor="middle" font-family="Arial, sans-serif" font-size="13" fill="#9a3412">Daftar Produk</text>
  <rect x="380" y="130" width="260" height="32" rx="6" fill="#f97316" opacity="0.3"/>
  <text x="510" y="151" text-anchor="middle" font-family="Arial, sans-serif" font-size="13" fill="#ea580c">Form (Tidak Aktif)</text>
  <line x1="160" y1="185" x2="640" y2="185" stroke="#e5e7eb" stroke-width="1"/>
  <text x="180" y="205" font-family="Arial, sans-serif" font-size="12" fill="#6b7280">No</text>
  <text x="240" y="205" font-family="Arial, sans-serif" font-size="12" fill="#6b7280">Spesifikasi</text>
  <text x="400" y="205" font-family="Arial, sans-serif" font-size="12" fill="#6b7280">Min. Pemesanan</text>
  <text x="540" y="205" font-family="Arial, sans-serif" font-size="12" fill="#6b7280">Vendor</text>
  <text x="620" y="205" font-family="Arial, sans-serif" font-size="12" fill="#6b7280">Jenis</text>
  <line x1="160" y1="215" x2="640" y2="215" stroke="#e5e7eb" stroke-width="1"/>
  <text x="180" y="240" font-family="Arial, sans-serif" font-size="13" fill="#374151">1</text>
  <text x="240" y="240" font-family="Arial, sans-serif" font-size="13" font-weight="bold" fill="#374151">lakban</text>
  <text x="400" y="240" font-family="Arial, sans-serif" font-size="13" fill="#374151">90 PCS</text>
  <text x="540" y="240" font-family="Arial, sans-serif" font-size="13" fill="#374151">pt kujang</text>
  <rect x="600" y="226" width="56" height="22" rx="11" fill="#fef3c7"/>
  <text x="628" y="241" text-anchor="middle" font-family="Arial, sans-serif" font-size="10" fill="#92400e">LAKBAN</text>
</svg>
